<svg width="202" height="202" viewBox="0 0 202 202" fill="none" xmlns="http://www.w3.org/2000/svg">
<path d="M92 87L118 61M118 61V85.96M118 61H93.04" stroke="white" stroke-width="1.5" stroke-linecap="round" stroke-linejoin="round"/>
<path d="M66.4291 130.64H68.4271L64.3411 140H62.6131L58.5271 130.64H60.5251L63.4771 137.606L66.4291 130.64ZM69.8601 127.274H71.8041V129.146H69.8601V127.274ZM69.8601 130.64H71.8041V140H69.8601V130.64ZM78.082 130.46C80.206 130.46 83.068 132.08 82.636 136.04H75.238C75.526 137.642 76.75 138.524 78.316 138.524C79.306 138.524 80.17 138.236 80.908 137.66L82.006 138.704C81.124 139.694 79.882 140.18 78.262 140.18C77.452 140.18 76.678 140.018 75.94 139.676C74.482 138.974 73.33 137.408 73.33 135.338C73.33 133.772 73.978 132.44 74.914 131.666C75.868 130.892 77.002 130.46 78.082 130.46ZM78.082 132.134C76.786 132.134 75.544 133.034 75.256 134.6H80.89C80.8 133.826 80.476 133.214 79.918 132.782C79.36 132.35 78.748 132.134 78.082 132.134ZM95.2374 137.57L97.7214 130.64H99.6654L96.1554 140H94.3734L91.6734 132.908L88.9734 140H87.1914L83.6814 130.64H85.6254L88.1094 137.57L90.8094 130.64H92.5374L95.2374 137.57ZM116.542 137.57L119.026 130.64H120.97L117.46 140H115.678L112.978 132.908L110.278 140H108.496L104.986 130.64H106.93L109.414 137.57L112.114 130.64H113.842L116.542 137.57ZM125.155 130.784C126.289 130.352 127.387 130.352 128.485 130.784C129.619 131.198 130.645 131.918 131.239 133.214C131.833 134.492 131.833 136.184 131.239 137.462C130.645 138.74 129.619 139.46 128.485 139.874C127.387 140.288 126.289 140.288 125.155 139.874C124.057 139.46 123.013 138.74 122.419 137.462C121.825 136.184 121.825 134.492 122.419 133.214C123.013 131.918 124.057 131.198 125.155 130.784ZM123.859 135.338C123.859 136.31 124.165 137.066 124.759 137.624C125.371 138.182 126.055 138.452 126.829 138.452C127.603 138.452 128.287 138.182 128.881 137.624C129.493 137.066 129.799 136.31 129.799 135.338C129.799 134.348 129.493 133.592 128.881 133.034C128.287 132.476 127.603 132.188 126.829 132.188C126.055 132.188 125.371 132.476 124.759 133.034C124.165 133.592 123.859 134.348 123.859 135.338ZM138.522 130.496C138.774 130.496 138.954 130.514 139.08 130.532V132.386C138.954 132.368 138.792 132.35 138.576 132.35C137.676 132.35 136.902 132.656 136.272 133.25C135.642 133.844 135.264 134.618 135.156 135.59V140H133.212V130.64H135.156V133.034C135.57 131.576 136.848 130.496 138.522 130.496ZM149.558 140H147.29L143.618 136.004L142.556 137.102V140H140.612V127.274H142.556V134.726L146.372 130.64H148.712L144.824 134.726L149.558 140Z" fill="white"/>
<circle cx="101" cy="101" r="100.5" stroke="white"/>
</svg>
