<svg width="408" height="51" viewBox="0 0 408 51" fill="none" xmlns="http://www.w3.org/2000/svg">
<g clip-path="url(#clip0_307_1869)">
<path fill-rule="evenodd" clip-rule="evenodd" d="M88.227 21.479C89.511 21.479 90.718 22.114 91.283 22.801V16.697H94.365V34.12H91.283V32.848C90.923 33.484 89.793 34.323 88.227 34.323C84.451 34.323 82.525 31.754 82.525 27.94C82.525 24.1 84.451 21.479 88.227 21.479ZM88.663 31.677C90.256 31.677 91.54 30.355 91.54 27.913C91.54 25.446 90.256 24.149 88.663 24.149C87.071 24.149 85.787 25.472 85.787 27.913C85.761 30.38 87.045 31.677 88.663 31.677ZM0.437 24.938C0.847 22.903 2.645 21.478 5.214 21.478C8.194 21.478 10.479 22.699 10.479 26.692V34.068H7.962L7.654 32.491C6.781 33.559 5.599 34.271 3.801 34.271C1.67 34.271 0 32.95 0 30.507C0 28.066 2.209 26.464 5.342 26.464H7.422V25.904C7.422 24.505 6.37 24.073 5.214 24.073C4.341 24.073 3.442 24.353 3.056 25.497L0.436 24.937L0.437 24.938ZM4.495 31.678C5.907 31.678 7.372 30.736 7.372 29.134V28.905H5.317C3.981 28.855 3.185 29.388 3.185 30.456C3.211 31.041 3.647 31.677 4.495 31.677V31.678ZM60.513 24.938C60.923 22.903 62.722 21.478 65.29 21.478C68.27 21.478 70.556 22.699 70.556 26.692V34.068H68.039L67.73 32.491C66.857 33.559 65.676 34.271 63.878 34.271C61.746 34.271 60.076 32.949 60.076 30.507C60.076 28.066 62.286 26.464 65.419 26.464H67.499V25.904C67.499 24.505 66.446 24.073 65.29 24.073C64.417 24.073 63.518 24.353 63.133 25.497L60.513 24.938ZM64.571 31.678C65.984 31.678 67.448 30.736 67.448 29.134V28.905H65.393C64.058 28.905 63.261 29.388 63.261 30.482C63.287 31.042 63.724 31.677 64.571 31.677V31.678Z" fill="white"/>
<path d="M73.3553 21.6569V34.0929L76.4373 34.0429V29.6429C76.4373 25.6499 78.0043 24.1749 79.8023 24.1749C80.3163 24.1749 80.7273 24.3019 81.0863 24.5309L81.6513 21.7079C81.1612 21.5533 80.6501 21.4757 80.1363 21.4779C78.7233 21.4779 77.3113 22.2159 76.4373 23.6909V21.6569H73.3553ZM103.663 25.1399L105.512 23.4619C104.742 22.2669 103.252 21.4279 101.608 21.4529C99.1683 21.4529 97.6013 23.1569 97.6013 25.0649C97.6013 26.9719 98.7573 27.8369 100.119 28.3959C100.484 28.5469 100.852 28.6749 101.202 28.7959C102.325 29.1859 103.252 29.5079 103.252 30.3039C103.252 31.2189 102.636 31.6519 101.685 31.6519C100.453 31.6519 99.6053 30.7869 99.1683 29.5919L96.7283 30.9139C97.3453 32.4139 99.1173 34.2459 101.711 34.2459C104.434 34.2459 106.155 32.3889 106.155 30.1259C106.155 27.8169 104.063 27.1239 102.384 26.5679L102.374 26.5649C102.114 26.4789 101.865 26.3949 101.634 26.3109C100.864 26.0559 100.427 25.6749 100.427 25.1149C100.427 24.4289 100.992 24.0729 101.583 24.0729C102.25 24.0729 103.098 24.3769 103.663 25.1399ZM41.2753 21.6819L39.0663 30.2019L36.9343 21.6819H34.0583L31.9523 30.2019L30.2053 25.2419L30.0003 25.8529L28.9983 29.0329L30.5903 34.0929H33.3393L35.4963 26.0819L37.6543 34.0929H40.3763L44.3833 21.6829L41.2753 21.6819ZM53.9383 30.2019L56.1723 21.6819H59.2803L55.2483 34.0929H52.5253L50.3683 26.0819L48.2103 34.0929H45.4873L43.8693 29.0329L44.8713 25.8529L45.0773 25.2429L46.8493 30.2019L48.9293 21.6819H51.8063L53.9383 30.2019ZM29.5123 21.6819L25.5053 34.0679H22.7823L20.6253 26.0559L18.4673 34.1189H15.7453L11.7383 21.7329H14.8713L17.1063 30.2269L19.2383 21.7329H22.0883L24.2213 30.2269L26.4553 21.7329L29.5123 21.6819ZM112.242 32.1599C112.242 30.9649 111.369 30.0999 110.161 30.0999C108.98 30.0999 108.081 30.9649 108.081 32.1599C108.081 33.3559 108.954 34.2199 110.161 34.2199C111.369 34.2199 112.242 33.3559 112.242 32.1599Z" fill="white"/>
</g>
<g clip-path="url(#clip1_307_1869)">
<path d="M177.943 1.90699C177.8 2.37899 177.476 2.88699 177.008 3.40199C176.538 3.92199 175.923 4.44699 175.208 4.94599C174.446 5.47347 173.642 5.93705 172.803 6.33199C171.931 6.74736 171.025 7.08759 170.095 7.34899C169.18 7.60299 168.355 7.73899 167.649 7.76899C166.949 7.79699 166.366 7.71999 165.929 7.55099C165.497 7.38299 165.205 7.12399 165.079 6.78599C164.953 6.45199 164.988 6.04099 165.203 5.56399C165.269 5.41899 165.349 5.27399 165.443 5.12499C165.536 4.97899 165.643 4.82999 165.761 4.68199C166.02 4.36477 166.304 4.0679 166.608 3.79399L167.044 3.41199L167.474 3.06599L167.881 2.76099L168.286 2.47699L168.688 2.21699L169.076 1.98099L169.46 1.76299C169.46 1.76299 168.68 2.35899 168.296 2.84299C168.229 2.92746 168.164 3.01314 168.1 3.09999C167.984 3.25013 167.886 3.41282 167.806 3.58499C167.706 3.81899 167.696 4.01699 167.768 4.17599C167.792 4.22928 167.824 4.27828 167.864 4.32099C167.914 4.37262 167.971 4.41645 168.033 4.45099C168.086 4.48099 168.146 4.50699 168.212 4.52899C168.434 4.60499 168.725 4.63399 169.072 4.61199C169.479 4.58178 169.881 4.50769 170.272 4.39099C170.718 4.26299 171.165 4.09099 171.587 3.89099C172.01 3.69099 172.407 3.46299 172.761 3.22099C173.112 2.98099 173.419 2.72699 173.656 2.47499C173.893 2.22499 174.063 1.97499 174.146 1.74499C174.226 1.51399 174.214 1.32199 174.123 1.17199C174.032 1.02299 173.863 0.914994 173.629 0.851994C173.397 0.789994 173.111 0.803994 172.771 0.868994C172.666 0.888994 172.556 0.904994 172.44 0.921994C172.19 0.958994 171.916 0.999994 171.622 1.08599C171.425 1.14384 171.231 1.21398 171.042 1.29599L170.989 1.31999L170.922 1.34999C171.613 0.9809 172.339 0.682712 173.09 0.459994C173.654 0.282994 174.041 0.179994 174.56 0.0879939C175.078 -0.00288598 175.606 -0.0240737 176.13 0.0249939C176.593 0.0639939 176.983 0.159994 177.287 0.312994C177.594 0.466994 177.814 0.676994 177.929 0.942994C178.047 1.20999 178.056 1.53299 177.943 1.90699ZM189.098 22.102C189.098 22.102 188.9 22.654 188.72 22.981C188.554 23.282 188.228 23.713 188.228 23.713L188.136 23.836L188.048 23.952C187.848 24.214 187.517 24.607 187.517 24.607L187.071 25.102C186.613 25.59 186.088 26.06 185.511 26.502C184.932 26.946 184.301 27.36 183.632 27.735C182.955 28.1141 182.251 28.4446 181.526 28.724C180.66 29.0585 179.766 29.3122 178.853 29.482C178.435 29.5573 178.014 29.6121 177.591 29.646L176.767 29.682L176.585 29.684L175.704 29.658L174.807 29.575L174.557 29.542C174.045 29.4717 173.539 29.3701 173.039 29.238C172.91 29.2052 172.782 29.1715 172.653 29.137L172.173 28.971L172.042 28.906C172.38 29.042 172.822 29.17 173.261 29.239C173.703 29.307 174.174 29.346 174.672 29.353C175.173 29.36 175.702 29.335 176.254 29.276C176.809 29.216 177.387 29.122 177.985 28.991C179.357 28.691 180.715 28.228 182.006 27.639C183.27 27.0643 184.474 26.3652 185.599 25.552C186.679 24.768 187.626 23.91 188.394 23.02C188.651 22.7271 188.887 22.4163 189.1 22.09C189.11 22.078 189.098 22.102 189.098 22.102Z" fill="white"/>
<path d="M181.197 0.657002L182.168 1.025L183.126 1.467L183.463 1.643C183.529 1.678 183.593 1.715 183.655 1.753C183.844 1.868 184.013 1.997 184.161 2.139C184.359 2.329 184.519 2.543 184.638 2.779C184.762 3.02445 184.839 3.29056 184.866 3.564C184.898 3.851 184.883 4.161 184.816 4.494C184.642 5.371 184.131 6.32 183.349 7.282C182.554 8.261 181.484 9.248 180.215 10.182C178.853 11.1743 177.402 12.038 175.88 12.762C174.299 13.524 172.649 14.1324 170.951 14.579C169.453 14.967 168.094 15.165 166.912 15.192C165.748 15.219 164.762 15.081 163.987 14.798C163.225 14.519 162.671 14.103 162.347 13.568C162.029 13.045 161.935 12.408 162.087 11.678L162.155 11.366L162.432 10.332L162.778 9.332L163.134 8.488L163.46 7.798L163.406 7.938C163.41 7.928 163.41 7.93 163.406 7.936V7.938L163.393 7.967C163.083 8.655 163.021 9.255 163.179 9.751C163.342 10.263 163.74 10.663 164.344 10.933C164.957 11.207 165.78 11.345 166.78 11.328C167.793 11.31 168.981 11.131 170.303 10.775C171.652 10.4051 172.964 9.91414 174.224 9.308C175.437 8.73155 176.597 8.04959 177.69 7.27C178.713 6.536 179.584 5.762 180.24 4.995C180.887 4.238 181.324 3.493 181.495 2.803C181.581 2.4868 181.596 2.15576 181.54 1.833C181.488 1.5532 181.365 1.29152 181.182 1.073C181.002 0.856002 180.764 0.673002 180.474 0.524002C180.265 0.419476 180.046 0.335419 179.82 0.273002L179.464 0.177002C179.619 0.199002 179.704 0.215002 179.821 0.245002C180.011 0.297412 180.201 0.347416 180.391 0.395002C180.709 0.487002 181.197 0.657002 181.197 0.657002Z" fill="white"/>
<path d="M187.71 5.1549L188.434 6.0649L189.092 7.0399L189.386 7.5389C189.563 7.85677 189.686 8.20178 189.75 8.5599C189.784 8.7459 189.803 8.9399 189.806 9.1399C189.811 9.3419 189.798 9.5509 189.771 9.7669C189.629 10.8849 189.075 12.0829 188.185 13.2919C187.277 14.5249 186.024 15.7599 184.518 16.9179C182.899 18.1507 181.156 19.2121 179.318 20.0849C177.408 21.0052 175.405 21.7183 173.343 22.2119C171.892 22.5519 170.544 22.7379 169.33 22.7819C168.128 22.8259 167.061 22.7319 166.147 22.5159C165.247 22.3019 164.499 21.9719 163.92 21.5389C163.351 21.1139 162.945 20.5909 162.717 19.9849L162.487 19.3229L162.173 18.1909L161.953 17.0509L161.907 16.7289L161.843 16.0869C161.927 16.6989 162.183 17.2349 162.606 17.6809C163.081 18.1809 163.762 18.5669 164.628 18.8209C165.508 19.0799 166.578 19.2009 167.808 19.1639C169.055 19.1269 170.462 18.9289 171.996 18.5509C173.941 18.064 175.832 17.3808 177.639 16.5119C179.377 15.6873 181.029 14.6935 182.573 13.5449C184.009 12.4669 185.21 11.3219 186.091 10.1849C186.955 9.0679 187.504 7.9659 187.666 6.9429C187.712 6.6549 187.726 6.3829 187.709 6.1239C187.694 5.87756 187.649 5.63402 187.574 5.3989C187.458 5.03775 187.268 4.70467 187.017 4.4209L187.619 5.0499L187.71 5.1549Z" fill="white"/>
<path d="M191.142 13.645C191.23 14.558 191.258 15.091 191.111 15.997C190.885 17.397 190.52 18.222 189.735 19.362C188.935 20.523 187.825 21.672 186.485 22.74C185.051 23.87 183.496 24.836 181.848 25.62C180.134 26.4457 178.331 27.0705 176.474 27.482C175.52 27.689 174.612 27.82 173.762 27.88C172.917 27.938 172.129 27.927 171.406 27.85C170.745 27.7855 170.093 27.648 169.463 27.44C168.931 27.2665 168.427 27.0162 167.968 26.697L167.08 26.007L166.34 25.34C166.34 25.34 165.836 24.848 165.543 24.506C165.333 24.262 165.029 23.858 165.029 23.858C165.372 24.248 165.792 24.586 166.319 24.865C166.937 25.19 167.675 25.433 168.522 25.583C169.381 25.735 170.349 25.79 171.412 25.739C172.586 25.6753 173.752 25.5103 174.898 25.246C176.917 24.7837 178.878 24.0967 180.745 23.198C182.541 22.3454 184.24 21.2999 185.81 20.08C187.273 18.933 188.485 17.704 189.36 16.468C190.217 15.258 190.743 14.052 190.865 12.919C190.877 12.7993 190.886 12.6792 190.89 12.559C190.891 12.4495 190.883 12.3402 190.867 12.232L190.864 12.207C190.851 12.087 191.014 12.722 191.014 12.722C191.014 12.722 191.107 13.282 191.142 13.645Z" fill="white"/>
<path fill-rule="evenodd" clip-rule="evenodd" d="M175.83 49.9531H174.677V49.0361H174.652C174.524 49.3751 174.025 50.0911 172.963 50.0911C171.48 50.0911 170.877 48.7711 170.877 47.0621C170.877 45.0751 171.645 43.8311 173.027 43.8311C174.037 43.8311 174.511 44.4471 174.652 44.7991H174.677V41.2791H175.829L175.83 49.9531ZM173.347 44.7111C172.451 44.7111 172.157 45.7051 172.157 46.9611C172.157 47.8671 172.285 49.2111 173.359 49.2111C174.294 49.2111 174.677 47.9411 174.677 46.9491C174.677 45.9051 174.371 44.7111 173.347 44.7111Z" fill="white"/>
<path d="M161.379 49.9531H162.53V47.4141C162.53 45.5791 163.4 45.0631 164.436 45.0631V43.8301C163.234 43.8301 162.723 44.6981 162.556 45.1751H162.53V43.9701H161.379V49.9531Z" fill="white"/>
<path fill-rule="evenodd" clip-rule="evenodd" d="M169.706 49.01L169.742 48.998V49.89L169.684 49.903C169.215 50.01 168.859 50.091 168.22 50.091C166.377 50.091 165.2 49.023 165.2 46.672C165.2 44.108 166.903 43.832 167.682 43.832C169.167 43.832 169.882 44.824 169.882 46.232V46.522H166.352C166.352 47.64 166.928 49.212 168.591 49.212C169.091 49.212 169.441 49.097 169.706 49.01ZM167.619 44.71C167.319 44.6944 167.025 44.7958 166.798 44.993C166.571 45.1901 166.429 45.4676 166.403 45.767H168.732C168.732 45.39 168.502 44.71 167.619 44.71ZM181.075 49.953H182.227V41.28H181.075V44.8H181.049C180.909 44.448 180.436 43.832 179.425 43.832C178.043 43.832 177.275 45.076 177.275 47.063C177.275 48.773 177.877 50.093 179.36 50.093C180.422 50.093 180.922 49.376 181.049 49.037H181.074L181.075 49.953ZM178.555 46.961C178.555 45.705 178.849 44.711 179.745 44.711C180.768 44.711 181.075 45.905 181.075 46.949C181.075 47.942 180.692 49.212 179.758 49.212C178.683 49.212 178.554 47.867 178.554 46.962L178.555 46.961ZM186.373 50.091C188.202 50.091 189.059 48.847 189.059 46.961C189.059 45.051 188.202 43.831 186.373 43.831C184.53 43.831 183.673 45.051 183.673 46.961C183.673 48.847 184.531 50.091 186.373 50.091ZM184.953 46.961C184.953 45.993 185.107 44.711 186.373 44.711C187.613 44.711 187.78 45.993 187.78 46.961C187.78 47.917 187.614 49.211 186.374 49.211C185.106 49.211 184.953 47.917 184.953 46.961Z" fill="white"/>
<path d="M193.743 49.1239C193.577 49.1739 193.333 49.2119 193.13 49.2119C192.234 49.2119 192.157 48.5829 192.157 48.0419V44.8499H193.846V43.9699H192.156V41.8589L191.006 42.5629V43.9709H189.917V44.8509H191.005V48.6339C191.005 49.4519 191.364 50.0919 192.835 50.0919C193.141 50.0919 193.449 50.0679 193.743 50.0039V49.1239Z" fill="white"/>
</g>
<path d="M290.657 19.04C290.874 19.04 291.076 19.09 291.247 19.21C291.634 19.433 291.882 19.895 291.882 20.407V24.255H295.262C295.945 24.255 296.488 24.853 296.488 25.605C296.488 26.358 295.945 26.956 295.263 26.956H291.883V30.616C291.883 31.368 291.339 31.966 290.657 31.966H281.244C280.562 31.966 280.019 31.368 280.019 30.616V25.537C280.05 24.819 280.593 24.237 281.244 24.237H289.432V21.742H279.988L275.507 30.924C275.429 31.334 275.197 31.694 274.84 31.882C274.677 31.9672 274.497 32.014 274.313 32.019C273.894 32.019 273.475 31.779 273.258 31.352C273.213 31.2766 273.176 31.196 273.15 31.112L269.614 23.452L266.032 30.942C265.877 31.335 265.644 31.694 265.288 31.899C265.125 31.9842 264.945 32.031 264.761 32.036C264.341 32.036 263.923 31.796 263.706 31.369C263.66 31.2937 263.624 31.2131 263.598 31.129L259.27 21.776H252.044V24.273H257.89C258.572 24.273 259.115 24.871 259.115 25.623C259.115 26.376 258.572 26.974 257.89 26.974H252.044V30.702C252.044 31.454 251.501 32.052 250.819 32.052C250.136 32.052 249.594 31.454 249.594 30.702V26.974H246.152C245.47 26.974 244.927 26.376 244.927 25.624C244.927 24.871 245.47 24.273 246.152 24.273H249.532V20.425C249.532 19.912 249.796 19.467 250.168 19.228C250.339 19.125 250.541 19.057 250.758 19.057H259.922C260.124 19.057 260.31 19.108 260.481 19.211C260.744 19.331 260.961 19.553 261.085 19.861L264.714 27.709L268.343 20.219C268.529 19.809 268.622 19.433 269.025 19.228C269.188 19.1429 269.368 19.0961 269.552 19.091C269.862 19.091 270.157 19.211 270.374 19.45C270.591 19.638 270.7 19.775 270.854 20.1L274.282 27.709L278.128 19.843C278.221 19.6579 278.36 19.4993 278.531 19.382C278.748 19.193 279.011 19.074 279.321 19.074H290.657M282.423 29.248H289.432V26.956H282.422L282.423 29.248ZM290.657 16.27H279.322C278.485 16.2779 277.678 16.5803 277.042 17.124C276.592 17.466 276.22 17.928 275.956 18.441L275.941 18.475L275.925 18.509L274.359 21.724C274.359 21.724 272.545 17.791 272.002 17.313C271.32 16.663 270.452 16.303 269.552 16.303C268.984 16.3039 268.425 16.4451 267.924 16.714C266.947 17.227 266.404 18.184 265.954 19.296L264.776 21.724L263.334 18.612C262.962 17.774 262.326 17.09 261.551 16.697C261.05 16.4282 260.491 16.2874 259.922 16.287H250.758C250.138 16.287 249.518 16.457 248.974 16.782C247.764 17.501 247.021 18.902 247.021 20.407V21.485H246.152C244.09 21.485 242.415 23.33 242.415 25.605C242.415 27.88 244.09 29.726 246.152 29.726H247.021V30.684C247.021 32.958 248.695 34.8041 250.758 34.8041C252.82 34.8041 254.495 32.958 254.495 30.684V29.726H257.813C258.527 29.726 259.209 29.504 259.783 29.111L261.256 32.291C261.334 32.479 261.411 32.651 261.504 32.821C262.186 34.052 263.396 34.805 264.698 34.805C265.257 34.805 265.815 34.6681 266.327 34.3951C267.289 33.8932 268.038 33.0613 268.436 32.052L269.506 29.436L270.839 32.3081C270.917 32.497 270.994 32.668 271.087 32.838C271.77 34.07 272.979 34.8221 274.282 34.8221C274.84 34.8221 275.398 34.6851 275.91 34.4121C276.763 33.9501 277.43 33.146 277.77 32.189C278.33 33.693 279.678 34.753 281.244 34.753H290.657C292.72 34.753 294.394 32.975 294.394 30.701V29.743H295.263C297.325 29.743 299 27.897 299 25.623C299 23.349 297.325 21.502 295.263 21.502H294.394V20.425C294.394 18.903 293.65 17.518 292.44 16.8C291.911 16.4517 291.291 16.2673 290.657 16.27Z" fill="white"/>
<g clip-path="url(#clip2_307_1869)">
<path d="M347.404 7.91992H365.09V43.0019H361.266C361.327 42.9189 361.374 42.8329 361.405 42.7459L361.429 42.6959V36.1689C361.429 35.3489 360.052 34.6469 357.962 34.2439C357.262 34.0839 356.703 33.9969 356.608 33.9819C356.853 33.9469 361.161 33.3009 361.161 31.5789C361.161 29.9929 356.177 29.5909 356.177 29.5909C356.177 29.5909 361.093 28.7509 361.093 27.2849C361.093 26.1229 355.858 25.2609 355.858 25.2609C355.858 25.2609 360.969 24.5299 360.969 22.9409C360.969 21.5879 356.229 20.8679 356.229 20.8679C356.229 20.8679 360.832 20.3709 360.832 18.6459C360.832 17.3199 355.982 16.4719 355.982 16.4719C355.982 16.4719 360.789 15.8619 360.789 14.3449C360.789 12.3719 354.436 11.9149 354.436 11.9149L353.446 13.1829C353.446 13.1829 357.793 13.5929 357.793 14.2979C357.793 14.9349 349.132 15.5749 347.404 15.6979V7.92092V7.91992Z" fill="white"/>
<path d="M357.652 31.6229C357.652 32.4779 348.987 33.2419 347.404 33.3629V30.5899C347.648 30.6064 347.893 30.6187 348.138 30.6269C348.462 30.6409 348.843 30.6549 349.264 30.6699H349.267C352.385 30.7849 357.652 30.9789 357.652 31.6229ZM357.652 27.4239C357.652 28.2619 349.058 28.9459 347.404 29.0659V26.0719C347.801 26.1069 348.422 26.1489 349.168 26.1999C352.31 26.4139 357.652 26.7779 357.652 27.4239ZM357.736 23.0279C357.736 23.8319 349.26 24.4059 347.404 24.5229V21.8199C348.116 21.9169 349.421 21.9959 350.869 22.0829C353.973 22.2699 357.736 22.4959 357.736 23.0279ZM357.652 18.6389C357.652 19.4689 349.552 20.0589 347.404 20.2019V17.2419C347.715 17.2689 348.026 17.2939 348.338 17.3169L349.124 17.3729C352.24 17.5969 357.652 17.9849 357.652 18.6389Z" fill="white"/>
<path fill-rule="evenodd" clip-rule="evenodd" d="M371.716 36.71H371.273L368.423 43.08H368.896L369.675 41.31H373.293L374.071 43.08H374.567L371.716 36.71ZM371.493 37.221L373.103 40.883H369.873L371.493 37.221Z" fill="white"/>
<path d="M374.892 36.7531H374.386L376.604 43.1271H376.975L378.769 37.6301L380.562 43.1271H380.93L383.151 36.7531H382.677L380.753 42.3851L378.963 36.7351H378.61L376.816 42.3811L374.892 36.7531Z" fill="white"/>
<path fill-rule="evenodd" clip-rule="evenodd" d="M386.257 36.71H385.818L382.968 43.08H383.441L384.219 41.31H387.835L388.613 43.08H389.108L386.257 36.71ZM386.031 37.221L387.641 40.883H384.411L386.031 37.221ZM392.585 36.753H390.013V43.079H390.466V40.459H392.472L394.421 43.083H394.998L392.978 40.379C394.011 40.232 394.771 39.629 394.771 38.569V38.551C394.773 38.114 394.608 37.6928 394.308 37.375C393.94 36.998 393.335 36.753 392.585 36.753ZM394.315 38.588C394.315 39.501 393.558 40.035 392.532 40.035H390.47V37.188H392.557C393.667 37.188 394.315 37.718 394.315 38.57V38.588ZM398.16 36.753H396.119V43.079H398.159C400.084 43.079 401.414 41.698 401.414 39.914V39.896C401.414 38.116 400.084 36.753 398.16 36.753ZM400.94 39.936C400.94 41.442 399.865 42.648 398.16 42.648V42.644H396.575V37.188H398.16C399.865 37.188 400.94 38.416 400.94 39.918V39.936Z" fill="white"/>
<path d="M402.56 41.8041L402.263 42.1581C402.999 42.8381 403.749 43.1701 404.732 43.1701C405.91 43.1701 406.759 42.4691 406.759 41.4461V41.4271C406.759 40.5031 406.164 39.9801 404.749 39.6811C403.296 39.3741 402.963 38.9681 402.963 38.2991V38.2811C402.963 37.6191 403.557 37.0861 404.459 37.0861C405.139 37.0749 405.797 37.3321 406.289 37.8021L406.575 37.4301C405.955 36.9181 405.368 36.6621 404.477 36.6621C403.338 36.6621 402.507 37.3861 402.507 38.3251V38.3431C402.507 39.3001 403.101 39.8161 404.573 40.1231C405.963 40.4111 406.306 40.8031 406.306 41.4711V41.4901C406.306 42.2131 405.673 42.7471 404.753 42.7471C403.855 42.7471 403.233 42.4471 402.56 41.8041ZM369.99 17.6201H367.853V17.1841H372.579V17.6191H370.442V23.5141H369.989V17.6191L369.99 17.6201ZM373.566 17.1841H374.022V20.1151H377.942V17.1851H378.397V23.5141H377.941V20.5461H374.021V23.5141H373.565L373.566 17.1841ZM380 17.1841H384.354V17.6191H380.452V20.1041H383.962V20.5391H380.452V23.0791H384.4V23.5141H380V17.1841ZM374.392 26.6961L374.386 26.6781H372.826L372.246 28.9331V28.9371C371.878 30.3811 371.807 30.6591 371.546 32.1051C371.337 30.5231 371.256 30.1431 370.496 26.6781H368.737L370.527 33.9761H372.345L373.025 31.5161C373.27 30.7421 373.47 29.9521 373.625 29.1531C373.838 30.1761 373.859 30.2231 374.238 31.5641C374.412 32.1721 374.575 32.7841 374.741 33.3971L374.899 33.9771H376.717L378.507 26.6751H376.756L376.296 28.9001C375.978 30.3841 375.928 30.6321 375.716 32.0801C375.506 30.7281 375.433 30.4611 375.086 29.2121L375.037 29.0321C374.813 28.2531 374.602 27.4741 374.392 26.6961Z" fill="white"/>
<path fill-rule="evenodd" clip-rule="evenodd" d="M384.959 33.048C385.309 32.712 385.542 32.365 385.779 31.999L384.269 31.206C384.022 31.703 383.647 32.441 382.55 32.441C381.471 32.441 380.99 31.571 381 30.695H385.857C385.829 29.902 385.776 28.531 384.892 27.548C384.022 26.58 382.851 26.54 382.447 26.54C379.767 26.54 378.96 28.718 378.96 30.413C378.96 32.712 380.378 34.042 382.394 34.042C383.346 34.056 384.265 33.6996 384.959 33.048ZM383.409 28.411C383.638 28.691 383.771 29.039 383.788 29.405H381.015L381.017 29.396C381.08 29.103 381.148 28.784 381.418 28.476C381.542 28.3373 381.693 28.2253 381.862 28.1465C382.031 28.0678 382.213 28.0241 382.4 28.018C382.586 28.012 382.771 28.0436 382.944 28.1112C383.118 28.1787 383.276 28.2807 383.409 28.411ZM389.847 26.675H387.117V33.972H390.098C390.908 33.972 391.478 33.94 392.008 33.702C392.352 33.557 392.644 33.313 392.849 33.001C393.057 32.6849 393.171 32.3157 393.176 31.937C393.176 31.52 393.038 31.118 392.786 30.841C392.402 30.39 391.842 30.295 391.413 30.222L391.397 30.22C391.779 30.14 392.457 29.993 392.777 29.247C392.822 29.1443 392.854 29.0365 392.873 28.926C392.893 28.822 392.907 28.696 392.907 28.546C392.916 28.1648 392.801 27.791 392.579 27.481C392.361 27.1766 392.047 26.9546 391.687 26.851C391.259 26.708 390.59 26.675 389.847 26.675ZM388.797 29.558V28.041H390.247C390.587 28.041 391.177 28.071 391.177 28.772C391.177 29.529 390.527 29.547 390.127 29.558H388.797ZM388.797 32.65V30.88H390.325L390.337 30.881C390.702 30.892 391.386 30.913 391.386 31.78C391.386 32.617 390.618 32.639 390.028 32.65H388.797ZM397.35 26.675H394.619V33.972H397.601C398.411 33.972 398.981 33.94 399.511 33.702C399.855 33.5518 400.148 33.3052 400.355 32.992C400.562 32.6788 400.674 32.3125 400.678 31.937C400.678 31.52 400.537 31.118 400.289 30.841C399.905 30.39 399.345 30.295 398.915 30.222L398.899 30.22C399.281 30.14 399.96 29.993 400.279 29.247C400.31 29.178 400.409 28.941 400.409 28.546C400.418 28.1649 400.303 27.791 400.081 27.481C399.863 27.1766 399.549 26.9546 399.189 26.851C398.758 26.708 398.09 26.675 397.35 26.675ZM396.3 29.558V28.041H397.75C398.089 28.041 398.68 28.071 398.68 28.772C398.68 29.529 398.029 29.547 397.63 29.558H396.3ZM396.3 32.65V30.88H397.827C398.188 30.892 398.888 30.903 398.888 31.78C398.888 32.617 398.118 32.639 397.53 32.65H396.3Z" fill="white"/>
<path d="M402.67 26.675H400.636L403.289 30.574V33.972H405.029V30.5201L407.699 26.6761H405.691L404.481 28.6311C404.421 28.7261 404.364 28.8228 404.309 28.921C404.265 29.003 404.239 29.0671 404.191 29.1791L402.67 26.6761V26.675Z" fill="white"/>
</g>
<defs>
<clipPath id="clip0_307_1869">
<rect width="113" height="19" fill="white" transform="translate(0 16)"/>
</clipPath>
<clipPath id="clip1_307_1869">
<rect width="33" height="51" fill="white" transform="translate(161)"/>
</clipPath>
<clipPath id="clip2_307_1869">
<rect width="61" height="36" fill="white" transform="translate(347 7.5)"/>
</clipPath>
</defs>
</svg>
